# xmcd
#
# Track frame offsets:
#	150
#	25988
#	39943
#	55955
#	65462
#	86845
#	113048
#	138840
#	162807
#	175942
#	194835
#	209300
#	223068
#
# Disc length: 3334 seconds
#
# Revision: 0
# Processed by: cddbd v1.5.2PL0 Copyright (c) Steve Scherf et al.
# Submitted via: audiograbber 1.83.01
#
DISCID=bc0d040d
DTITLE=Stick Men - Soup
DYEAR=2010
DGENRE=Rock
TTITLE0=Soup
TTITLE1=Hands Pt1
TTITLE2=Hands Pt2
TTITLE3=Hands Pt3
TTITLE4=Inside the Red Pyramid
TTITLE5=Fugue
TTITLE6=Sasquatch
TTITLE7=Scarlet Wheel
TTITLE8=The Firebird Suite Pt1
TTITLE9=The Firebird Suite Pt2
TTITLE10=The Firebird Suite Pt3
TTITLE11=The Firebird Suite Pt4
TTITLE12=Relentless
EXTD=
EXTT0=
EXTT1=
EXTT2=
EXTT3=
EXTT4=
EXTT5=
EXTT6=
EXTT7=
EXTT8=
EXTT9=
EXTT10=
EXTT11=
EXTT12=
PLAYORDER=
